<svg xmlns="http://www.w3.org/2000/svg" width="102" height="102" viewBox="0 0 102 102"><g fill="none"><path d="M0 0h102v102H0z"/><path d="M12.75 12.75h76.5v76.5h-76.5z"/></g><path data-name="Path 740" d="M38.828 83.534a30.823 30.823 0 0 0 23.544-2.38 30.809 30.809 0 0 0 14.953-18.333c.025-.084.066-.223.119-.412l.114-.405 4.613 1.233c-.057.21-.1.369-.132.48l-.138.468a35.581 35.581 0 0 1-17.269 21.169 35.568 35.568 0 0 1-27.168 2.756l1.364-4.576z" fill="#7cb342"/><path data-name="Path 741" d="M25.218 82.835a35.689 35.689 0 0 1-.019-50.458v-.014q.183-.183.342-.338c.132-.129.246-.238.342-.329l3.295 3.459a9.147 9.147 0 0 0-.3.292q-.159.155-.291.287v.009a30.909 30.909 0 0 0 .01 43.716h.009l-1.711 1.711-1.66 1.669z" fill="#7cb342"/><path data-name="Path 742" d="M82.808 72.53l-3.312-8.3-9.122 4.108-1.961-4.352 11.39-5.131 2.268-1.022.925 2.32 4.238 10.621z" fill="#689f38"/><path data-name="Path 743" d="M16.884 30.785l11.361-1.307 2.476-.285.176 2.489.884 12.457-4.763.336-.707-9.973-8.885 1.026z" fill="#689f38"/><path data-name="Path 744" d="M84.913 48.929h-2.391l-2.343.448a30.9 30.9 0 0 0-36.176-24.545l-.449.086-.438.092-1.027-4.651q.343-.076.513-.111l.5-.1a35.7 35.7 0 0 1 41.76 28.337l.047.448zM44.006 24.832" fill="#7cb342"/><path data-name="Path 745" d="M50.091 15.475l-5.836 6.783 7.86 6.188-2.951 3.75-9.818-7.725-1.961-1.541 1.625-1.884 7.457-8.672z" fill="#689f38"/></svg>